<svg
  style="width:100%"
  xmlns="http://www.w3.org/2000/svg"
  width="76.367"
  height="77.113"
  viewBox="0 0 76.367 77.113"
><g id="Group_24" data-name="Group 24" transform="translate(0 0)"><g
      id="Group_3"
      data-name="Group 3"
      transform="translate(0 0)"
    ><g id="Group_2" data-name="Group 2" transform="translate(0 0)"><path
          id="Union_1"
          data-name="Union 1"
          d="M23.952,74.336a2.777,2.777,0,1,1,2.777,2.777A2.777,2.777,0,0,1,23.952,74.336Zm13.777,1.591a.759.759,0,0,1,.75-.767,35.984,35.984,0,0,0,7.793-.975A36.512,36.512,0,0,0,58,69.168a.761.761,0,1,1,.824,1.279,38.419,38.419,0,0,1-20.315,6.228h-.026A.758.758,0,0,1,37.729,75.926Zm-21.4-5.867A38.261,38.261,0,0,1,.522,47.118a.775.775,0,0,1,.572-.909A.759.759,0,0,1,2,46.764a36.738,36.738,0,0,0,15.165,22.05.74.74,0,0,1,.2,1.044.759.759,0,0,1-.623.337h-.026A.643.643,0,0,1,16.327,70.06Zm48.779-7.237a1.649,1.649,0,1,1,1.649,1.648A1.649,1.649,0,0,1,65.107,62.823ZM19.829,44.155A19.306,19.306,0,0,1,49.823,22.863a.758.758,0,0,1-.909,1.213,17.8,17.8,0,1,0-6.632,31.543A17.538,17.538,0,0,0,52.2,49.306a17.808,17.808,0,0,0,3.709-9.026,2.093,2.093,0,0,1-1.089-1.174H42.866a5.067,5.067,0,1,1,0-1.515H54.842a2.089,2.089,0,0,1,3.865,0H75.458a.758.758,0,0,1,0,1.515H58.733a2.092,2.092,0,0,1-1.314,1.261,19.3,19.3,0,0,1-4.028,9.864A19.039,19.039,0,0,1,42.636,57.1a19.984,19.984,0,0,1-4.427.5A19.3,19.3,0,0,1,19.829,44.155ZM0,28.956a2.087,2.087,0,1,1,2.087,2.088A2.087,2.087,0,0,1,0,28.956ZM10.974,12.815a.723.723,0,0,1-.521-.22.735.735,0,0,1-.233-.527.743.743,0,0,1,.216-.534,38.343,38.343,0,0,1,48.829-5,2.779,2.779,0,1,1-1.2,1.02A36.863,36.863,0,0,0,11.514,12.6a.711.711,0,0,1-.515.22Z"
          fill="#fff2de"
        /></g><path
        id="Path_7"
        data-name="Path 7"
        d="M733.538,497.9a.908.908,0,0,1-.353-.084.757.757,0,0,1-.32-1.027,36.964,36.964,0,0,0,3.956-16.428.757.757,0,0,1,.757-.757h0a.757.757,0,0,1,.758.757,38.411,38.411,0,0,1-4.124,17.118A.758.758,0,0,1,733.538,497.9Z"
        transform="translate(-661.968 -441.992)"
        fill="#fff2de"
      /></g></g></svg>
