<svg
  width="160"
  height="32"
  viewBox="0 0 160 32"
  fill="none"
  xmlns="http://www.w3.org/2000/svg"
><g clip-path="url(#clip0_2_522)"><path
      d="M30.3346 13.3332V20.2231C30.3346 21.4145 29.3642 22.3824 28.1753 22.3824H20.9279V29.5901C20.9279 30.7814 19.9625 31.7494 18.7686 31.7494H11.8787C10.6874 31.7494 9.71938 30.7839 9.71938 29.5901V22.3824H2.15931C0.967967 22.3824 0 21.4169 0 20.2231V13.3332C0 12.1418 0.965485 11.1739 2.15931 11.1739H10.7171C10.9207 11.1739 11.1118 11.2657 11.2359 11.4245L12.6779 13.2513C12.8094 13.4176 12.6903 13.6633 12.4793 13.6633H2.49438V19.8856H10.0569C11.2433 19.8856 12.2162 20.856 12.2162 22.0449V29.255H18.4385V22.0474C18.4385 20.8585 19.4115 19.8856 20.6003 19.8856H27.8402V13.6633H15.3286C14.7131 13.6633 14.1298 13.3654 13.77 12.8666L8.97727 6.83538C8.49825 6.17269 8.19794 5.43555 8.07136 4.63139C8.01924 4.28143 8.02916 3.92899 8.1061 3.60138C8.46351 2.06752 9.59777 0.960562 11.077 0.714847C11.1391 0.704919 11.2284 0.677618 11.2855 0.613086C11.6305 0.220936 12.1319 -0.00244141 12.6556 -0.00244141C13.2115 -0.00244141 13.7278 0.243273 14.0777 0.672654C14.4302 1.107 14.5642 1.66792 14.4525 2.2214C14.3085 2.91635 13.7427 3.48224 13.0452 3.62868C12.9162 3.6535 12.7871 3.66591 12.658 3.66591C12.2733 3.66591 11.9035 3.54677 11.5883 3.32091C11.5089 3.26135 11.417 3.22908 11.3327 3.22908C11.2905 3.22908 11.2532 3.23653 11.2185 3.2539C11.0497 3.32836 10.9033 3.44501 10.7916 3.59641C10.5856 3.86943 10.5434 4.44773 10.6998 4.83739C10.7767 5.02602 10.8735 5.20473 10.9926 5.36854L13.6409 8.69189L15.547 11.087C15.5892 11.1416 15.6538 11.1714 15.7233 11.1714H28.1753C29.3617 11.1714 30.3346 12.1418 30.3346 13.3307V13.3332Z"
      fill="#285FE7"
    /><path
      d="M21.6998 5.24692C21.5435 5.81281 21.2878 6.34395 20.9379 6.82545L18.1531 10.1736C18.0985 10.2382 18.0166 10.2779 17.9322 10.2779H16.304C16.2172 10.2779 16.1328 10.2382 16.0782 10.1687L15.6761 9.65986C15.5917 9.55313 15.5942 9.40421 15.6786 9.29997L18.9275 5.35613C19.0838 5.13275 19.2179 4.8647 19.3023 4.56934C19.3966 4.22931 19.3271 3.87687 19.1161 3.59393C19.0416 3.5021 18.9597 3.42267 18.8654 3.35566C18.791 3.30354 18.7041 3.27624 18.6197 3.27624C18.5453 3.27624 18.4758 3.29609 18.4212 3.33829C18.1109 3.55422 17.751 3.66591 17.3738 3.66591C17.2943 3.66591 17.2149 3.66094 17.1355 3.65101C16.4108 3.55918 15.7853 3.02804 15.5992 2.32068C15.4453 1.73494 15.5768 1.12934 15.9466 0.672654C16.2991 0.243273 16.8178 -0.00244141 17.3713 -0.00244141C17.9248 -0.00244141 18.4013 0.223418 18.7513 0.623014C18.8133 0.692509 18.9076 0.724775 18.9796 0.737185C19.821 0.915886 20.5755 1.39491 21.1042 2.08986C21.7917 2.99826 22.0101 4.14741 21.6974 5.24444L21.6998 5.24692Z"
      fill="#122750"
    /><path
      d="M60.0437 2.31323V6.60207H50.9622V31.7469H46.1274V6.60207H37.0458V2.31323H60.0462H60.0437Z"
      fill="#122750"
    /><path
      d="M60.3168 11.3327C61.9003 10.4218 63.7146 9.96509 65.7622 9.96509C67.8098 9.96509 69.6663 10.3845 71.2498 11.2259C72.8333 12.0673 74.0818 13.2587 74.9926 14.8C75.9035 16.3413 76.3726 18.1506 76.4024 20.2231C76.4024 20.784 76.3602 21.3573 76.2758 21.948H60.0462V22.2012C60.1579 24.08 60.7462 25.5643 61.8134 26.6588C62.8782 27.7509 64.2954 28.2994 66.06 28.2994C67.4624 28.2994 68.6388 27.9693 69.5919 27.3116C70.545 26.6538 71.1754 25.7206 71.4831 24.5144H76.0251C75.633 26.701 74.5757 28.4955 72.8507 29.8978C71.1257 31.3001 68.9764 32 66.3951 32C64.1514 32 62.1981 31.5458 60.5302 30.6349C58.8623 29.724 57.5717 28.4409 56.6608 26.7879C55.75 25.1349 55.2933 23.2138 55.2933 21.0272C55.2933 18.8406 55.7351 16.8724 56.6186 15.2045C57.5022 13.5366 58.7358 12.246 60.3193 11.3351L60.3168 11.3327ZM69.9046 14.9489C68.8523 14.0653 67.5294 13.6235 65.931 13.6235C64.4443 13.6235 63.1636 14.0802 62.0839 14.9911C61.0043 15.902 60.3813 17.1156 60.2125 18.6272H71.776C71.5799 17.0561 70.957 15.83 69.9046 14.9489Z"
      fill="#122750"
    /><path
      d="M82.9175 2.31323V31.7469H78.3755V2.31323H82.9175Z"
      fill="#122750"
    /><path
      d="M90.7382 4.33348C90.7382 5.11778 90.4727 5.77053 89.939 6.28927C89.4054 6.808 88.7477 7.06612 87.9634 7.06612C87.1791 7.06612 86.5189 6.808 85.9878 6.28927C85.4541 5.77053 85.1886 5.11778 85.1886 4.33348C85.1886 3.54917 85.4541 2.89642 85.9878 2.37769C86.5214 1.85895 87.1791 1.60083 87.9634 1.60083C88.7477 1.60083 89.4079 1.85895 89.939 2.37769C90.4702 2.89642 90.7382 3.54917 90.7382 4.33348ZM90.2344 10.2207V31.7468H85.6924V10.2182H90.2344V10.2207Z"
      fill="#122750"
    /><path
      d="M113.907 31.7469H109.954L109.408 28.5079C107.698 30.836 105.357 31.9976 102.386 31.9976C100.423 31.9976 98.6706 31.5558 97.1293 30.6722C95.588 29.7886 94.3818 28.5129 93.5131 26.845C92.6444 25.1771 92.2101 23.2213 92.2101 20.9801C92.2101 18.7389 92.6518 16.8675 93.5354 15.1996C94.419 13.5317 95.6302 12.2411 97.174 11.3302C98.7153 10.4193 100.453 9.96266 102.389 9.96266C103.957 9.96266 105.332 10.2506 106.509 10.8239C107.685 11.3997 108.638 12.1915 109.368 13.1991V2.31323H113.91V31.7469H113.907ZM109.408 21.067C109.408 18.9077 108.834 17.1628 107.683 15.8325C106.533 14.5022 105.019 13.8345 103.141 13.8345C101.262 13.8345 99.7478 14.4997 98.5986 15.8325C97.4495 17.1653 96.8737 18.8804 96.8737 20.9826C96.8737 23.0848 97.4495 24.8445 98.5986 26.1749C99.7478 27.5052 101.262 28.1728 103.141 28.1728C105.019 28.1728 106.533 27.5151 107.683 26.1972C108.832 24.8793 109.408 23.1692 109.408 21.067Z"
      fill="#122750"
    /><path
      d="M117.251 26.7655C116.34 25.0976 115.883 23.1692 115.883 20.9825C115.883 18.7959 116.337 16.9096 117.251 15.2417C118.162 13.5739 119.452 12.2783 121.12 11.3525C122.788 10.4267 124.701 9.96509 126.858 9.96509C129.015 9.96509 130.931 10.4267 132.599 11.3525C134.267 12.2783 135.555 13.5739 136.469 15.2417C137.379 16.9096 137.834 18.8232 137.834 20.9825C137.834 23.1419 137.379 25.0952 136.469 26.7655C135.558 28.4334 134.267 29.7215 132.599 30.6349C130.931 31.5458 129.018 32 126.858 32C124.699 32 122.785 31.5458 121.12 30.6349C119.452 29.724 118.162 28.4334 117.251 26.7655ZM133.207 20.9825C133.207 18.8803 132.626 17.1628 131.462 15.8325C130.298 14.5021 128.764 13.8345 126.858 13.8345C124.952 13.8345 123.426 14.4996 122.274 15.8325C121.125 17.1653 120.549 18.8803 120.549 20.9825C120.549 23.0848 121.125 24.8023 122.274 26.1326C123.423 27.4654 124.952 28.1306 126.858 28.1306C128.764 28.1306 130.298 27.4654 131.462 26.1326C132.626 24.8023 133.207 23.0848 133.207 20.9825Z"
      fill="#122750"
    /><path
      d="M149.735 31.9999C147.605 31.9999 145.726 31.5458 144.101 30.6349C142.475 29.724 141.219 28.4284 140.338 26.7456C139.454 25.0629 139.013 23.1294 139.013 20.9428C139.013 18.7562 139.462 16.8351 140.358 15.1821C141.254 13.5292 142.524 12.246 144.163 11.3351C145.803 10.4242 147.702 9.96753 149.861 9.96753C152.552 9.96753 154.753 10.6749 156.463 12.0921C158.173 13.5068 159.238 15.4353 159.66 17.8751H154.991C154.684 16.6415 154.066 15.6612 153.142 14.9315C152.217 14.2018 151.082 13.8394 149.737 13.8394C147.915 13.8394 146.451 14.4971 145.344 15.815C144.237 17.133 143.684 18.843 143.684 20.9453C143.684 23.0475 144.237 24.8072 145.344 26.1375C146.451 27.4704 147.915 28.1355 149.737 28.1355C151.139 28.1355 152.301 27.7632 153.227 27.0211C154.153 26.279 154.753 25.2763 155.036 24.0155H159.662C159.241 26.5098 158.163 28.4656 156.424 29.8803C154.686 31.2951 152.457 32.0024 149.737 32.0024L149.735 31.9999Z"
      fill="#122750"
    /></g><defs><clipPath id="clip0_2_522"><rect
        width="159.658"
        height="32"
        fill="white"
      /></clipPath></defs></svg>
